<svg width="391" height="242" viewBox="0 0 391 242" fill="none" xmlns="http://www.w3.org/2000/svg">
<g filter="url(#filter0_bd)">
<path d="M14 72C32.8908 48.3865 53.3503 24.565 78.5555 7.44444C79.0663 7.09751 86.4292 2.16985 86.5555 4.44444C86.7719 8.33795 78.9286 17.4086 77.1111 20.3333C58.0033 51.0815 41.2905 83.1472 22.7778 114.222C21.3631 116.597 18 120.244 18 123C18 123.361 17.7518 124.983 18.1667 124.222C22.3252 116.598 29.016 109.792 34.4444 103.111C61.6694 69.6035 93.7486 41.6444 123.444 10.5C123.676 10.2566 131.651 1.43593 129.444 7.11111C124.18 20.6483 114.638 33.0545 107.556 45.6667C84.8394 86.1184 61.2471 126.134 38.7778 166.667C31.8942 179.084 24.7325 191.32 18.7778 204.222C17.2105 207.618 14.7632 211.519 12.4444 214.5C-20.688 257.099 75.7587 126.624 113.278 87.8333C131.734 68.7519 149.571 48.7547 169.889 31.6111C172.186 29.6726 175.358 25.7538 178.5 25.0556C180.662 24.575 178.953 29.1116 178.778 29.6667C174.628 42.8273 167.143 55.4657 160.556 67.5C138.547 107.708 112.272 145.53 91.3889 186.389C86.8225 195.323 81.2892 204.498 78 214C77.098 216.606 75.7168 220.298 74 222.444C69.4459 228.137 73.9614 218.139 75 215.889C96.7316 168.804 131.667 130.18 163.667 90C181.59 67.4939 200.009 44.8298 221.278 25.3333C228.386 18.8179 235.437 11.6984 243.389 6.16666C249.031 2.24183 241.986 12.7089 241.333 13.7222C222.546 42.8756 202.281 70.9566 184 100.5C161.866 136.27 139.487 171.883 116.333 207C112.114 213.4 109.25 220.807 104.778 227C103.758 228.412 102.546 229.618 102.056 231.333C100.975 235.116 105.267 224.125 107.333 220.778C137.404 172.074 178.556 130.481 218 89.4444C243.272 63.1516 269.22 37.0776 296.222 12.5556C297.855 11.0728 308.564 0.00813749 310.778 2.22222C312.073 3.51753 306.046 11.8005 305.333 12.8889C287.099 40.7375 264.742 66.354 244.667 92.8889C226.491 116.913 209.013 140.892 192.5 166.056C185.11 177.317 178.406 188.833 172.111 200.722C170.339 204.07 169.01 209.084 166.556 211.889C154.366 225.82 185.65 180.047 197.167 165.556C216.554 141.161 237.55 117.989 257.444 94C269.441 79.5338 281.237 64.8221 294.111 51.1111C299.252 45.6359 304.918 40.5268 310.222 35.2222C311.107 34.337 315 30.3853 315 33.4444C315 44.2581 304.52 56.2551 300 65.1111C283.161 98.104 269.644 132.477 254.389 166.167C248.334 179.538 240.952 192.108 235 205.5C234.464 206.707 234 210.654 234 209.333C234 203.428 242.565 194.766 245.667 191C260.675 172.776 277.855 155.968 295.667 140.5C313.3 125.187 331.361 110.551 348.389 94.5555C348.767 94.2 354.898 88.3975 354.389 89.7222C352.226 95.3466 349.043 100.447 345.889 105.556C338.463 117.583 331.46 129.838 324.167 141.944C315.108 156.98 305.998 172.114 296 186.556C294.516 188.699 292.285 191.16 290.444 193C277.088 206.357 318.944 168.193 333.556 156.222C347.384 144.893 361.291 133.688 375 122.222C377.107 120.46 380.862 116.825 383.556 116.056C387.248 115.001 384.337 117.34 382.833 120.722C372.15 144.76 355.259 166.43 341.444 188.722C338.014 194.258 333.625 199.035 330.056 204.389C329.387 205.391 327.847 207.577 327 208" stroke="#FC6C8A" stroke-width="3" stroke-linecap="round" stroke-linejoin="round"/>
</g>
<defs>
<filter id="filter0_bd" x="0.128578" y="-3.56845" width="390.721" height="245.185" filterUnits="userSpaceOnUse" color-interpolation-filters="sRGB">
<feFlood flood-opacity="0" result="BackgroundImageFix"/>
<feGaussianBlur in="BackgroundImage" stdDeviation="2"/>
<feComposite in2="SourceAlpha" operator="in" result="effect1_backgroundBlur"/>
<feColorMatrix in="SourceAlpha" type="matrix" values="0 0 0 0 0 0 0 0 0 0 0 0 0 0 0 0 0 0 127 0"/>
<feOffset dy="4"/>
<feGaussianBlur stdDeviation="2"/>
<feColorMatrix type="matrix" values="0 0 0 0 0 0 0 0 0 0 0 0 0 0 0 0 0 0 0.25 0"/>
<feBlend mode="normal" in2="effect1_backgroundBlur" result="effect2_dropShadow"/>
<feBlend mode="normal" in="SourceGraphic" in2="effect2_dropShadow" result="shape"/>
</filter>
</defs>
</svg>
