<svg width="512" height="512" viewBox="0 0 512 512" fill="none" xmlns="http://www.w3.org/2000/svg">
<path fill-rule="evenodd" clip-rule="evenodd" d="M195.874 173.472V134.314C195.874 127.178 196.29 124.798 197.526 121.137C200.832 111.073 211.993 103.572 225.215 103.572C238.436 103.572 249.593 111.256 252.899 121.137C254.139 124.798 254.555 127.178 254.555 134.314V194.698C254.555 198.359 254.555 202.017 253.727 205.312C251.456 214.46 242.158 222.698 231.825 224.709C228.108 225.439 223.974 225.439 219.84 225.439H151.658C143.601 225.439 140.914 225.074 136.78 223.976C125.623 221.048 116.947 211.167 116.947 199.458C116.947 187.745 125.623 177.864 136.78 174.936C140.914 173.838 143.601 173.472 151.658 173.472H195.874ZM438.856 447.225H73.1439V161.945C73.1439 158.284 74.5905 155.174 77.4837 152.612L172.319 68.619C175.213 66.0599 178.724 64.7787 182.858 64.7787H438.856V447.225ZM480.388 0.36511C478.529 0.182552 476.048 0 471.296 0H173.144C169.842 0 166.537 0.182552 164.262 0.36511C150.624 1.46372 138.433 7.13607 128.722 15.7358L17.7679 114.001C8.06126 122.604 1.65275 133.398 0.415957 145.476C0.206144 147.487 0 150.415 0 153.342V475.951C0 480.16 0.206144 482.357 0.415957 484.003C2.06502 497.728 16.1152 510.168 31.6119 511.632C33.4745 511.817 35.9517 512 40.7038 512H471.296C476.048 512 478.529 511.817 480.388 511.632C495.885 510.168 509.935 497.728 511.588 484.003C511.79 482.357 512 480.16 512 475.951V36.0487C512 31.84 511.79 29.6428 511.588 27.9966C509.935 14.2721 495.885 1.82883 480.388 0.36511Z" fill="#41C9B4"/>
</svg>
