<svg width="92" height="137" viewBox="0 0 92 137" fill="none" xmlns="http://www.w3.org/2000/svg">
<g filter="url(#filter0_bd)">
<path d="M19.6058 19.189C26.7325 14.5526 34.6678 10.5143 41.4637 5.40076C42.7476 4.43467 45.1682 2.43725 46.8355 2.34365C47.9683 2.28006 47.5713 2.82449 46.959 3.71623C42.7484 9.84776 38.1011 15.6358 34.116 21.9341C29.3688 29.4368 24.7003 37.089 20.3468 44.8313C18.5772 47.9783 16.643 51.2145 14.6045 54.1898C14.3475 54.5648 13.2955 55.4297 13.6783 55.188C17.953 52.4884 21.7917 47.4813 25.6569 44.2074C35.4946 35.8745 45.5134 27.7605 55.3563 19.4385C56.9299 18.1081 58.1021 16.6648 59.9255 15.6951C60.3918 15.4471 60.6804 15.173 61.2221 15.0088C61.7323 14.8542 61.5224 14.9497 61.0986 15.6951C58.9943 19.3964 56.7077 23.021 54.4302 26.6134C40.0483 49.2975 26.5776 71.9183 15.0367 96.2406C12.5866 101.404 10.3441 106.722 7.81251 111.838C7.33494 112.803 6.33062 115.787 6.33062 114.708C6.33062 111.39 11.2765 106.007 12.9991 103.603C24.8823 87.0181 40.5031 73.0577 54.3684 58.1827C60.0713 52.0646 66.2456 46.6326 72.151 40.7759C73.2789 39.6573 74.9106 37.4937 76.288 36.7206C76.6658 36.5085 77.2021 36.5958 77.6155 36.5958C78.3998 36.5958 76.6528 37.8473 76.1645 38.4675C73.1891 42.2463 70.2528 46.0684 67.3658 49.916C56.0572 64.9874 44.9499 81.1346 35.9992 97.8316C34.7091 100.238 32.3871 104.612 32.3871 107.502C32.3871 107.772 32.4989 106.971 32.6032 106.722C33.505 104.574 34.93 102.636 36.4006 100.857C41.6354 94.5256 47.8828 88.978 53.7201 83.2323C57.4163 79.5941 62.2261 75.5497 65.143 71.1286C65.4204 70.7081 67.0377 68.7322 67.6436 69.2569C69.2143 70.6173 64.4492 81.5723 64.1242 82.5148C60.4433 93.1875 56.3556 103.728 52.0221 114.147C50.3208 118.237 48.5877 122.266 47.1133 126.437C45.609 130.694 53.4001 118.5 53.504 118.358C61.1976 107.825 70.7022 98.9624 79.0974 89.0658C80.6743 87.2068 82.5464 84.8935 84.6236 83.5443C85.3651 83.0626 87.0927 81.875 85.9511 83.2947C82.7399 87.2882 79.9065 91.392 77.1524 95.7103C75.015 99.0616 72.8903 102.389 70.7309 105.662" stroke="#FC6C8A" stroke-width="3" stroke-linecap="round" stroke-linejoin="round"/>
</g>
<defs>
<filter id="filter0_bd" x="0.83062" y="-3.1618" width="91" height="139.999" filterUnits="userSpaceOnUse" color-interpolation-filters="sRGB">
<feFlood flood-opacity="0" result="BackgroundImageFix"/>
<feGaussianBlur in="BackgroundImage" stdDeviation="2"/>
<feComposite in2="SourceAlpha" operator="in" result="effect1_backgroundBlur"/>
<feColorMatrix in="SourceAlpha" type="matrix" values="0 0 0 0 0 0 0 0 0 0 0 0 0 0 0 0 0 0 127 0"/>
<feOffset dy="4"/>
<feGaussianBlur stdDeviation="2"/>
<feColorMatrix type="matrix" values="0 0 0 0 0 0 0 0 0 0 0 0 0 0 0 0 0 0 0.25 0"/>
<feBlend mode="normal" in2="effect1_backgroundBlur" result="effect2_dropShadow"/>
<feBlend mode="normal" in="SourceGraphic" in2="effect2_dropShadow" result="shape"/>
</filter>
</defs>
</svg>
